{
  "accessors": [
    {
      "bufferView": 2,
      "componentType": 5126,
      "count": 1220,
      "max": [
        0.14005200564861298,
        0.6074849963188171,
        0.04857169836759567
      ],
      "min": [
        -0.13934899866580963,
        0.5114259719848633,
        -0.019286299124360085
      ],
      "type": "VEC3"
    },
    {
      "bufferView": 2,
      "byteOffset": 14640,
      "componentType": 5126,
      "count": 1220,
      "max": [
        0.9996453523635864,
        0.9906304478645325,
        0.9996752142906189
      ],
      "min": [
        -0.9996453523635864,
        -0.9989752173423767,
        -0.99761563539505
      ],
      "type": "VEC3"
    },
    {
      "bufferView": 3,
      "componentType": 5126,
      "count": 1220,
      "max": [
        1.0,
        0.7896999716758728,
        0.9998499751091003,
        1.0
      ],
      "min": [
        -0.965050995349884,
        -0.7896999716758728,
        -0.9998499751091003,
        1.0
      ],
      "type": "VEC4"
    },
    {
      "bufferView": 1,
      "componentType": 5126,
      "count": 1220,
      "max": [
        0.9425110220909119,
        0.9615949988365173
      ],
      "min": [
        0.023233000189065933,
        0.8195340037345886
      ],
      "type": "VEC2"
    },
    {
      "bufferView": 0,
      "componentType": 5125,
      "count": 5376,
      "type": "SCALAR"
    },
    {
      "bufferView": 2,
      "byteOffset": 29280,
      "componentType": 5126,
      "count": 411,
      "max": [
        0.08339770138263702,
        0.6032019853591919,
        0.12158799916505814
      ],
      "min": [
        -0.08339770138263702,
        0.5425170063972473,
        0.07669830322265625
      ],
      "type": "VEC3"
    },
    {
      "bufferView": 2,
      "byteOffset": 34212,
      "componentType": 5126,
      "count": 411,
      "max": [
        1.0,
        1.0,
        1.0
      ],
      "min": [
        -1.0,
        -1.0,
        -0.05199921131134033
      ],
      "type": "VEC3"
    },
    {
      "bufferView": 3,
      "byteOffset": 19520,
      "componentType": 5126,
      "count": 411,
      "max": [
        0.7070630192756653,
        0.9238809943199158,
        1.0,
        1.0
      ],
      "min": [
        -0.12575499713420868,
        -0.9999889731407166,
        -1.0,
        -1.0
      ],
      "type": "VEC4"
    },
    {
      "bufferView": 1,
      "byteOffset": 9760,
      "componentType": 5126,
      "count": 411,
      "max": [
        0.4535129964351654,
        0.6602450013160706
      ],
      "min": [
        0.28257301449775696,
        0.4893049895763397
      ],
      "type": "VEC2"
    },
    {
      "bufferView": 0,
      "byteOffset": 21504,
      "componentType": 5125,
      "count": 1824,
      "type": "SCALAR"
    },
    {
      "bufferView": 2,
      "byteOffset": 39144,
      "componentType": 5126,
      "count": 7414,
      "max": [
        0.9961400032043457,
        0.7754470109939575,
        0.18853600323200226
      ],
      "min": [
        -0.9961400032043457,
        -0.8648769855499268,
        -0.1677439957857132
      ],
      "type": "VEC3"
    },
    {
      "bufferView": 2,
      "byteOffset": 128112,
      "componentType": 5126,
      "count": 7414,
      "max": [
        0.9999627470970154,
        0.9999995231628418,
        0.9999964833259583
      ],
      "min": [
        -0.9999627470970154,
        -0.9999962449073792,
        -0.9999971389770508
      ],
      "type": "VEC3"
    },
    {
      "bufferView": 3,
      "byteOffset": 26096,
      "componentType": 5126,
      "count": 7414,
      "max": [
        1.0,
        1.0,
        1.0,
        1.0
      ],
      "min": [
        -0.9744639992713928,
        -1.0,
        -1.0,
        -1.0
      ],
      "type": "VEC4"
    },
    {
      "bufferView": 1,
      "byteOffset": 13048,
      "componentType": 5126,
      "count": 7414,
      "max": [
        0.9843559861183167,
        0.9980080127716064
      ],
      "min": [
        0.0019647700246423483,
        0.001992030069231987
      ],
      "type": "VEC2"
    },
    {
      "bufferView": 0,
      "byteOffset": 28800,
      "componentType": 5125,
      "count": 32712,
      "type": "SCALAR"
    },
    {
      "bufferView": 2,
      "byteOffset": 217080,
      "componentType": 5126,
      "count": 4698,
      "max": [
        0.15846799314022064,
        0.862621009349823,
        0.19625799357891083
      ],
      "min": [
        -0.1566780060529709,
        0.5781779885292053,
        -0.16083699464797974
      ],
      "type": "VEC3"
    },
    {
      "bufferView": 2,
      "byteOffset": 273456,
      "componentType": 5126,
      "count": 4698,
      "max": [
        0.9987294673919678,
        0.9999964833259583,
        0.9999889731407166
      ],
      "min": [
        -0.9987294673919678,
        -0.9999964833259583,
        -0.9999889731407166
      ],
      "type": "VEC3"
    },
    {
      "bufferView": 3,
      "byteOffset": 144720,
      "componentType": 5126,
      "count": 4698,
      "max": [
        1.0,
        0.9999920129776001,
        1.0,
        1.0
      ],
      "min": [
        -1.0,
        -0.9999920129776001,
        -1.0,
        -1.0
      ],
      "type": "VEC4"
    },
    {
      "bufferView": 1,
      "byteOffset": 72360,
      "componentType": 5126,
      "count": 4698,
      "max": [
        0.9980080127716064,
        0.9928550124168396
      ],
      "min": [
        0.001992030069231987,
        0.0019817398861050606
      ],
      "type": "VEC2"
    },
    {
      "bufferView": 0,
      "byteOffset": 159648,
      "componentType": 5125,
      "count": 18324,
      "type": "SCALAR"
    },
    {
      "bufferView": 2,
      "byteOffset": 329832,
      "componentType": 5126,
      "count": 1492,
      "max": [
        0.23847399652004242,
        -0.06904300302267075,
        0.10417299717664719
      ],
      "min": [
        -0.2382819950580597,
        -0.7007700204849243,
        -0.18396100401878357
      ],
      "type": "VEC3"
    },
    {
      "bufferView": 2,
      "byteOffset": 347736,
      "componentType": 5126,
      "count": 1492,
      "max": [
        0.9991716146469116,
        0.9410414695739746,
        0.9996447563171387
      ],
      "min": [
        -0.9999819993972778,
        -0.9999807476997375,
        -0.9999857544898987
      ],
      "type": "VEC3"
    },
    {
      "bufferView": 3,
      "byteOffset": 219888,
      "componentType": 5126,
      "count": 1492,
      "max": [
        1.0,
        0.9983569979667664,
        1.0,
        1.0
      ],
      "min": [
        -0.9999989867210388,
        -0.9998030066490173,
        -0.9999819993972778,
        -1.0
      ],
      "type": "VEC4"
    },
    {
      "bufferView": 1,
      "byteOffset": 109944,
      "componentType": 5126,
      "count": 1492,
      "max": [
        0.9481279850006104,
        0.9980080127716064
      ],
      "min": [
        0.0018924600444734097,
        0.001992030069231987
      ],
      "type": "VEC2"
    },
    {
      "bufferView": 0,
      "byteOffset": 232944,
      "componentType": 5125,
      "count": 6372,
      "type": "SCALAR"
    },
    {
      "bufferView": 2,
      "byteOffset": 365640,
      "componentType": 5126,
      "count": 1309,
      "max": [
        0.785709023475647,
        0.4247500002384186,
        0.1281919926404953
      ],
      "min": [
        -0.785709023475647,
        -0.24881699681282043,
        -0.1942480057477951
      ],
      "type": "VEC3"
    },
    {
      "bufferView": 2,
      "byteOffset": 381348,
      "componentType": 5126,
      "count": 1309,
      "max": [
        0.9965216517448425,
        0.9999996423721313,
        0.9999898672103882
      ],
      "min": [
        -0.996521532535553,
        -0.9999997615814209,
        -0.9999755024909973
      ],
      "type": "VEC3"
    },
    {
      "bufferView": 3,
      "byteOffset": 243760,
      "componentType": 5126,
      "count": 1309,
      "max": [
        0.9374409914016724,
        1.0,
        1.0,
        1.0
      ],
      "min": [
        -0.8770760297775269,
        -1.0,
        -1.0,
        -1.0
      ],
      "type": "VEC4"
    },
    {
      "bufferView": 1,
      "byteOffset": 121880,
      "componentType": 5126,
      "count": 1309,
      "max": [
        0.9464750289916992,
        0.9980080127716064
      ],
      "min": [
        0.0018891700310632586,
        0.001992030069231987
      ],
      "type": "VEC2"
    },
    {
      "bufferView": 0,
      "byteOffset": 258432,
      "componentType": 5125,
      "count": 6048,
      "type": "SCALAR"
    }
  ],
  "asset": {
    "extras": {
      "author": "Cheruku Raju (https://sketchfab.com/rajucheruku3d)",
      "license": "CC-BY-4.0 (http://creativecommons.org/licenses/by/4.0/)",
      "source": "https://sketchfab.com/3d-models/indian-farmer-9e905cf8d59840bbb86fac19f86f34cb",
      "title": "Indian Farmer"
    },
    "generator": "Sketchfab-12.68.0",
    "version": "2.0"
  },
  "bufferViews": [
    {
      "buffer": 0,
      "byteLength": 282624,
      "name": "floatBufferViews",
      "target": 34963
    },
    {
      "buffer": 0,
      "byteLength": 132352,
      "byteOffset": 282624,
      "byteStride": 8,
      "name": "floatBufferViews",
      "target": 34962
    },
    {
      "buffer": 0,
      "byteLength": 397056,
      "byteOffset": 414976,
      "byteStride": 12,
      "name": "floatBufferViews",
      "target": 34962
    },
    {
      "buffer": 0,
      "byteLength": 264704,
      "byteOffset": 812032,
      "byteStride": 16,
      "name": "floatBufferViews",
      "target": 34962
    }
  ],
  "buffers": [
    {
      "byteLength": 1076736,
      "uri": "scene.bin"
    }
  ],
  "images": [
    {
      "uri": "textures/cloth_baseColor.jpeg"
    },
    {
      "uri": "textures/cloth_metallicRoughness.png"
    },
    {
      "uri": "textures/cloth_normal.png"
    },
    {
      "uri": "textures/Legs_cloth_baseColor.jpeg"
    },
    {
      "uri": "textures/Legs_cloth_metallicRoughness.png"
    },
    {
      "uri": "textures/Legs_cloth_normal.png"
    },
    {
      "uri": "textures/Top_Head_baseColor.jpeg"
    },
    {
      "uri": "textures/Top_Head_metallicRoughness.png"
    },
    {
      "uri": "textures/Top_Head_normal.png"
    },
    {
      "uri": "textures/Body_baseColor.jpeg"
    },
    {
      "uri": "textures/Body_metallicRoughness.png"
    },
    {
      "uri": "textures/Body_normal.png"
    },
    {
      "uri": "textures/eyes_baseColor.jpeg"
    },
    {
      "uri": "textures/eyes_metallicRoughness.png"
    },
    {
      "uri": "textures/eyes_normal.png"
    },
    {
      "uri": "textures/hears_baseColor.jpeg"
    },
    {
      "uri": "textures/hears_metallicRoughness.png"
    },
    {
      "uri": "textures/hears_normal.png"
    }
  ],
  "materials": [
    {
      "doubleSided": true,
      "name": "cloth",
      "normalTexture": {
        "index": 2
      },
      "occlusionTexture": {
        "index": 1
      },
      "pbrMetallicRoughness": {
        "baseColorTexture": {
          "index": 0
        },
        "metallicRoughnessTexture": {
          "index": 1
        }
      }
    },
    {
      "doubleSided": true,
      "name": "Legs_cloth",
      "normalTexture": {
        "index": 5
      },
      "occlusionTexture": {
        "index": 4
      },
      "pbrMetallicRoughness": {
        "baseColorTexture": {
          "index": 3
        },
        "metallicRoughnessTexture": {
          "index": 4
        }
      }
    },
    {
      "doubleSided": true,
      "name": "Top_Head",
      "normalTexture": {
        "index": 8
      },
      "pbrMetallicRoughness": {
        "baseColorTexture": {
          "index": 6
        },
        "metallicRoughnessTexture": {
          "index": 7
        }
      }
    },
    {
      "doubleSided": true,
      "name": "Body",
      "normalTexture": {
        "index": 11
      },
      "occlusionTexture": {
        "index": 10
      },
      "pbrMetallicRoughness": {
        "baseColorTexture": {
          "index": 9
        },
        "metallicRoughnessTexture": {
          "index": 10
        }
      }
    },
    {
      "doubleSided": true,
      "name": "eyes",
      "normalTexture": {
        "index": 14
      },
      "occlusionTexture": {
        "index": 13
      },
      "pbrMetallicRoughness": {
        "baseColorTexture": {
          "index": 12
        },
        "metallicRoughnessTexture": {
          "index": 13
        }
      }
    },
    {
      "doubleSided": true,
      "name": "hears",
      "normalTexture": {
        "index": 17
      },
      "occlusionTexture": {
        "index": 16
      },
      "pbrMetallicRoughness": {
        "baseColorTexture": {
          "index": 15
        },
        "metallicRoughnessTexture": {
          "index": 16
        }
      }
    }
  ],
  "meshes": [
    {
      "name": "defaultMaterial",
      "primitives": [
        {
          "attributes": {
            "NORMAL": 1,
            "POSITION": 0,
            "TANGENT": 2,
            "TEXCOORD_0": 3
          },
          "indices": 4,
          "material": 5,
          "mode": 4
        }
      ]
    },
    {
      "name": "defaultMaterial",
      "primitives": [
        {
          "attributes": {
            "NORMAL": 6,
            "POSITION": 5,
            "TANGENT": 7,
            "TEXCOORD_0": 8
          },
          "indices": 9,
          "material": 4,
          "mode": 4
        }
      ]
    },
    {
      "name": "defaultMaterial",
      "primitives": [
        {
          "attributes": {
            "NORMAL": 11,
            "POSITION": 10,
            "TANGENT": 12,
            "TEXCOORD_0": 13
          },
          "indices": 14,
          "material": 3,
          "mode": 4
        }
      ]
    },
    {
      "name": "defaultMaterial",
      "primitives": [
        {
          "attributes": {
            "NORMAL": 16,
            "POSITION": 15,
            "TANGENT": 17,
            "TEXCOORD_0": 18
          },
          "indices": 19,
          "material": 2,
          "mode": 4
        }
      ]
    },
    {
      "name": "defaultMaterial",
      "primitives": [
        {
          "attributes": {
            "NORMAL": 21,
            "POSITION": 20,
            "TANGENT": 22,
            "TEXCOORD_0": 23
          },
          "indices": 24,
          "material": 1,
          "mode": 4
        }
      ]
    },
    {
      "name": "defaultMaterial",
      "primitives": [
        {
          "attributes": {
            "NORMAL": 26,
            "POSITION": 25,
            "TANGENT": 27,
            "TEXCOORD_0": 28
          },
          "indices": 29,
          "material": 0,
          "mode": 4
        }
      ]
    }
  ],
  "nodes": [
    {
      "children": [
        1
      ],
      "matrix": [
        1.0,
        0.0,
        0.0,
        0.0,
        0.0,
        2.220446049250313e-16,
        -1.0,
        0.0,
        0.0,
        1.0,
        2.220446049250313e-16,
        0.0,
        0.0,
        0.0,
        0.0,
        1.0
      ],
      "name": "Sketchfab_model"
    },
    {
      "children": [
        2,
        4,
        6,
        8,
        10,
        12
      ],
      "matrix": [
        1.0,
        0.0,
        0.0,
        0.0,
        0.0,
        -4.371139006309477e-08,
        0.999999999999999,
        0.0,
        0.0,
        -0.999999999999999,
        -4.371139006309477e-08,
        0.0,
        0.0,
        0.0,
        0.0,
        1.0
      ],
      "name": "Collada visual scene group"
    },
    {
      "children": [
        3
      ],
      "name": "body"
    },
    {
      "mesh": 0,
      "name": "defaultMaterial"
    },
    {
      "children": [
        5
      ],
      "name": "body"
    },
    {
      "mesh": 1,
      "name": "defaultMaterial"
    },
    {
      "children": [
        7
      ],
      "name": "body"
    },
    {
      "mesh": 2,
      "name": "defaultMaterial"
    },
    {
      "children": [
        9
      ],
      "name": "top"
    },
    {
      "mesh": 3,
      "name": "defaultMaterial"
    },
    {
      "children": [
        11
      ],
      "name": "leg_cloth"
    },
    {
      "mesh": 4,
      "name": "defaultMaterial"
    },
    {
      "children": [
        13
      ],
      "name": "Cloth0"
    },
    {
      "mesh": 5,
      "name": "defaultMaterial"
    }
  ],
  "samplers": [
    {
      "magFilter": 9729,
      "minFilter": 9987,
      "wrapS": 10497,
      "wrapT": 10497
    }
  ],
  "scene": 0,
  "scenes": [
    {
      "name": "Sketchfab_Scene",
      "nodes": [
        0
      ]
    }
  ],
  "textures": [
    {
      "sampler": 0,
      "source": 0
    },
    {
      "sampler": 0,
      "source": 1
    },
    {
      "sampler": 0,
      "source": 2
    },
    {
      "sampler": 0,
      "source": 3
    },
    {
      "sampler": 0,
      "source": 4
    },
    {
      "sampler": 0,
      "source": 5
    },
    {
      "sampler": 0,
      "source": 6
    },
    {
      "sampler": 0,
      "source": 7
    },
    {
      "sampler": 0,
      "source": 8
    },
    {
      "sampler": 0,
      "source": 9
    },
    {
      "sampler": 0,
      "source": 10
    },
    {
      "sampler": 0,
      "source": 11
    },
    {
      "sampler": 0,
      "source": 12
    },
    {
      "sampler": 0,
      "source": 13
    },
    {
      "sampler": 0,
      "source": 14
    },
    {
      "sampler": 0,
      "source": 15
    },
    {
      "sampler": 0,
      "source": 16
    },
    {
      "sampler": 0,
      "source": 17
    }
  ]
}
